{"title":"System of a Down - Rock in Rio (2015) [1080p]","uid":13105426,"size":5264812160,"categoryP":"video","categoryS":"music_videos","magnet":"?xt=urn:btih:3bd45e88f031b85df6316870a405ce2c1b4e022d&amp;dn=System+of+a+Down+-+Rock+in+Rio+%282015%29+%5B1080p%5D&amp;tr=udp%3A%2F%2Ftracker.leechers-paradise.org%3A6969&amp;tr=udp%3A%2F%2Fzer0day.ch%3A1337&amp;tr=udp%3A%2F%2Fopen.demonii.com%3A1337&amp;tr=udp%3A%2F%2Ftracker.coppersurfer.tk%3A6969&amp;tr=udp%3A%2F%2Fexodus.desync.com%3A6969","seeders":2,"leechers":0,"uploader":"RLSARC","files":1,"time":1451283487,"description":"Tracklist:\r\n\r\n01. IEAIAIO \r\n02. Suite-Pee [partial] \r\n03. Attack \r\n04. Prison Song \r\n05. Know \r\n06. Aerials \r\n07. Soldier Side - Intro \r\n08. BYOB \r\n09. Soil \r\n10. Darts \r\n11. Radio / Video \r\n12. Hypnotize \r\n13. Temper \r\n14. CUBErt \r\n15. Needles \r\n16. Deer Dance \r\n17. Bounce \r\n18. Suggestions \r\n19. Psycho \r\n20. Chop Suey! \r\n21. Lonely Day \r\n22. Question! \r\n23. Lost in Hollywood \r\n24. Vicinity of Obscenity \r\n25. Forest \r\n26. Cigaro \r\n27. Toxicity (with Chino Moreno of Deftones) \r\n28. Sugar\r\n\r\n***-***-***---***-***-***---***-***-***---***-***-***---***-***-***---\r\n\r\nMedia Info:\r\n\r\nGeneral\r\nID                          : 58 (0x3A)\r\nComplete name               : D:VideosSystem of a Down - Rock in Rio 24.09.2015.ts\r\nFormat                      : MPEG-TS\r\nFile size                   : 4.90 GiB\r\nDuration                    : 1h 31mn\r\nOverall bit rate mode       : Variable\r\nOverall bit rate            : 7 643 Kbps\r\n\r\nVideo\r\nID                          : 1183 (0x49F)\r\nMenu ID                     : 542 (0x21E)\r\nFormat                      : AVC\r\nFormat/Info                 : Advanced Video Codec\r\nFormat version              : Version 2\r\nFormat profile              :   \r\nFormat settings, CABAC      : Yes\r\nFormat settings, ReFrames   : 4 frames\r\nFormat settings, GOP        : M=4, N=32\r\nCodec ID                    : 27\r\nDuration                    : 1h 31mn\r\nBit rate                    : 6 618 Kbps\r\nMaximum bit rate            : 12.0 Mbps\r\nWidth                       : 1 920 pixels\r\nHeight                      : 1 080 pixels\r\nDisplay aspect ratio        : 16:9\r\nFrame rate                  : 29.970 fps\r\nColor space                 : YUV\r\nChroma subsampling          : 4:2:0\r\nBit depth                   : 8 bits\r\nScan type                   : Interlaced\r\nScan order                  : Top Field First\r\nBits/(Pixel*Frame)          : 0.106\r\nStream size                 : 4.24 GiB (87%)\r\nLanguage                    : aaa\r\nColor range                 : Limited\r\nColor primaries             : BT.709\r\nTransfer characteristics    : BT.709\r\nMatrix coefficients         : BT.709\r\n\r\nAudio #1\r\nID                          : 1181 (0x49D)\r\nMenu ID                     : 542 (0x21E)\r\nFormat                      : MPEG Audio\r\nFormat version              : Version 1\r\nFormat profile              : Layer 2\r\nCodec ID                    : 4\r\nDuration                    : 1h 31mn\r\nBit rate mode               : Constant\r\nBit rate                    : 256 Kbps\r\nMaximum bit rate            : 264 Kbps\r\nChannel(s)                  : 2 channels\r\nSampling rate               : 48.0 KHz\r\nCompression mode            : Lossy\r\nDelay relative to video     : -1s 607ms\r\nStream size                 : 168 MiB (3%)\r\nLanguage                    : English\r\n\r\nAudio #2\r\nID                          : 1182 (0x49E)\r\nMenu ID                     : 542 (0x21E)\r\nFormat                      : AC-3\r\nFormat/Info                 : Audio Coding 3\r\nMode extension              : CM (complete main)\r\nFormat settings, Endianness : Big\r\nCodec ID                    : 6\r\nDuration                    : 1h 31mn\r\nBit rate mode               : Constant\r\nBit rate                    : 384 Kbps\r\nMaximum bit rate            : 395 Kbps\r\nChannel(s)                  : 6 channels\r\nChannel positions           : Front: L C R, Side: L R, LFE\r\nSampling rate               : 48.0 KHz\r\nCompression mode            : Lossy\r\nDelay relative to video     : -1s 592ms\r\nStream size                 : 252 MiB (5%)\r\nLanguage                    : Portuguese","torrent":{"xt":"urn:btih:3bd45e88f031b85df6316870a405ce2c1b4e022d","amp;dn":"System+of+a+Down+-+Rock+in+Rio+%282015%29+%5B1080p%5D","amp;tr":["udp%3A%2F%2Ftracker.leechers-paradise.org%3A6969","udp%3A%2F%2Fzer0day.ch%3A1337","udp%3A%2F%2Fopen.demonii.com%3A1337","udp%3A%2F%2Ftracker.coppersurfer.tk%3A6969","udp%3A%2F%2Fexodus.desync.com%3A6969"],"infoHash":"3bd45e88f031b85df6316870a405ce2c1b4e022d","infoHashBuffer":{"type":"Buffer","data":[59,212,94,136,240,49,184,93,246,49,104,112,164,5,206,44,27,78,2,45]},"announce":[],"urlList":[]}}